<svg xmlns="http://www.w3.org/2000/svg" width="1000" height="700" viewBox="0 0 1000 700" role="img" aria-labelledby="title desc">
<title id="title">Replace a telescope focus wheel with an accessible scalloped grip</title><desc id="desc">Original fictional engineering concept. Millimetre dimensions govern; the drawing is not to scale.</desc>
<defs><marker id="arrow" markerWidth="8" markerHeight="8" refX="4" refY="4" orient="auto-start-reverse"><path d="M0,0 L8,4 L0,8" fill="none" stroke="#287082"/></marker></defs>
<rect width="1000" height="700" fill="#f6f2e8"/>
<g stroke="#233c51" fill="none" stroke-width="3" stroke-linejoin="round"><circle cx="240" cy="290" r="140" fill="#d9e8e2"/><path d="M240 160 C266 153 288 178 295 190 C325 181 350 203 350 226 C378 235 388 271 370 290 C388 312 376 346 350 354 C347 383 317 399 295 390 C278 417 248 424 225 406 C197 422 165 407 157 381 C125 381 106 356 115 330 C89 313 89 280 109 260 C96 232 115 207 142 203 C145 175 177 159 201 173 C215 163 226 159 240 160 Z" stroke-width="4"/><circle cx="240" cy="290" r="48"/><path d="M222 269 A28 28 0 1 1 222 311 Z" fill="#f6f2e8"/><path d="M100 470H380 M100 451V484 M380 451V484" stroke="#287082"/><path d="M106 470H374" marker-start="url(#arrow)" marker-end="url(#arrow)" stroke="#287082"/><path d="M575 230H845V365H575Z" fill="#d9e8e2"/><path d="M680 365V290H736V365" stroke-dasharray="8 5"/><path d="M615 230V215H805V230"/><path d="M900 215V365" marker-start="url(#arrow)" marker-end="url(#arrow)" stroke="#287082"/><g fill="#233c51" stroke="none" font-family="Arial,sans-serif" font-size="19"><text x="161" y="128">front / grip view</text><text x="174" y="510">38.0 diameter</text><text x="580" y="190">section through socket</text><text x="910" y="295">18</text><text x="610" y="420">blind D socket 10 deep</text><text x="118" y="560">6 scallops; minimum diameter 33</text><text x="575" y="462">shaft dia 6.00; across flat 5.20</text><text x="575" y="501">+0.20 clearance on each boundary</text></g></g>
<g fill="#233c51" font-family="Arial,sans-serif"><text x="35" y="44" font-size="26">Replace a telescope focus wheel with an accessible scalloped grip</text><text x="35" y="675" font-size="17">ORIGINAL SYNTHETIC SKETCH · units mm · written dimensions govern · not to scale</text></g></svg>
