<svg xmlns="http://www.w3.org/2000/svg" width="1100" height="760" viewBox="0 0 1100 760" role="img" aria-label="Single-cup countertop brewer heat-up">
<rect width="1100" height="760" fill="#f8fafc"/><defs><marker id="arrow" viewBox="0 0 10 10" refX="8" refY="5" markerWidth="7" markerHeight="7" orient="auto-start-reverse"><path d="M0 0 L10 5 L0 10 Z" fill="#b45309"/></marker></defs>
<style>text{font-family:Arial,sans-serif;fill:#172554;font-size:20px}.small{font-size:17px}.label{font-weight:bold}.shape{fill:#dbeafe;stroke:#1d4ed8;stroke-width:3}.line{fill:none;stroke:#1d4ed8;stroke-width:3}.dim{fill:none;stroke:#b45309;stroke-width:2;marker-start:url(#arrow);marker-end:url(#arrow)}.load{stroke:#dc2626;stroke-width:5;marker-end:url(#arrow)}</style>
<text x="44" y="50" font-size="30" class="label">Single-cup countertop brewer heat-up</text><path d="M335 170 V510 Q335 565 470 565 Q605 565 605 510 V170" class="shape"/><ellipse cx="470" cy="170" rx="135" ry="34" fill="#eff6ff" stroke="#1d4ed8" stroke-width="3"/><path d="M350 290 Q470 325 590 290 V500 Q470 540 350 500 Z" fill="#7dd3fc" fill-opacity=".7"/><path d="M375 550 H565" stroke="#dc2626" stroke-width="13"/><text x="660" y="275">Water mass 0.350 kg</text><text x="660" y="318">20°C → 90°C</text><text x="660" y="361">Target ≤ 180 s</text><text x="660" y="430">350 / 500 / 700 W</text><path d="M290 290 V520 M335 625 H605" class="dim"/><text x="200" y="400">~77 fill</text><text x="410" y="663">Ø76 inside</text><text x="85" y="135">Supplied loss assumption: UA = 0.60 W/K</text><text x="44" y="718" class="small">Original synthetic thermal-system concept • parameter units are in context and CSV</text></svg>
