<svg xmlns="http://www.w3.org/2000/svg" width="1060" height="740" viewBox="0 0 1060 740" role="img" aria-labelledby="title desc">
<title id="title">Keyed six-hole jig for a circular lab fixture plate</title><desc id="desc">Original synthetic drill-jig layout. Hole coordinates and tolerances are in the attached CSV and context. Keepout regions show clamp occupancy, not material to generate.</desc>
<defs><pattern id="hatch" patternUnits="userSpaceOnUse" width="10" height="10"><path d="M0 10L10 0" stroke="#b26d50" stroke-width="2"/></pattern></defs>
<rect width="1060" height="740" fill="#f4f0e5"/><g stroke="#254154" stroke-width="3" fill="none" stroke-linejoin="round"><circle cx="373" cy="338" r="231" fill="#d6ddce"/><circle cx="373" cy="338" r="240" fill="#d5e9e2" fill-opacity=".55"/><circle cx="373" cy="338" r="84" fill="#f4f0e5"/><circle cx="373" cy="338" r="152" stroke-dasharray="7 6"/><g fill="#e7d9b8"><circle cx="525" cy="338" r="27"/><circle cx="449" cy="206" r="27"/><circle cx="297" cy="206" r="27"/><circle cx="221" cy="338" r="27"/><circle cx="297" cy="470" r="27"/><circle cx="449" cy="470" r="27"/></g><g><circle cx="525" cy="338" r="10"/><circle cx="449" cy="206" r="10"/><circle cx="297" cy="206" r="10"/><circle cx="221" cy="338" r="10"/><circle cx="297" cy="470" r="10"/><circle cx="449" cy="470" r="10"/></g><rect x="124" y="301" width="58" height="74" fill="url(#hatch)"/><rect x="504" y="475" width="58" height="51" fill="url(#hatch)"/><path d="M604 326H587V350H604" stroke="#af7252" stroke-width="8"/><path d="M373 338H680 M373 338V71" stroke="#238487"/><g fill="#254154" stroke="none" font-family="Arial,sans-serif" font-size="18"><text x="100" y="90">152 dia workpiece; six holes on 100 PCD</text><text x="686" y="340">+X notch datum</text><text x="383" y="84">+Y</text><text x="323" y="343">55 min</text><text x="318" y="368">opening</text><text x="696" y="194">Notch X=70..76</text><text x="696" y="225">Y=-4..4</text><text x="696" y="411">Use CSV centers</text><text x="696" y="449">Clamp zones excluded</text><text x="138" y="628">Radial rim clearance 0.20; key-side clearance 0.15. No new workpiece index hole.</text></g></g>
<g fill="#254154" font-family="Arial,sans-serif"><text x="30" y="42" font-size="24">Keyed six-hole jig for a circular lab fixture plate</text><text x="30" y="713" font-size="16">ORIGINAL SYNTHETIC SKETCH · units mm · CSV coordinates govern · hatched regions are clamp keepouts</text></g></svg>
